HIERARCHY
ROOT Root
{
	OFFSET 	 0.0	 0.0339374542236	 -1.05138683319
	CHANNELS 6 Xposition Yposition Zposition Xrotation Yrotation Zrotation 
	JOINT pelvis
	{
		OFFSET 	 6.38852066941e-16	 10.7809247971	 0.347678780556
		CHANNELS 3 Xrotation Yrotation Zrotation 
		JOINT spine_01
		{
			OFFSET 	 2.15063947489e-17	 0.942988425824	 -0.351226080268
			CHANNELS 3 Xrotation Yrotation Zrotation 
			JOINT spine_02
			{
				OFFSET 	 -5.70808307135e-18	 0.779190057964	 0.0932200708862
				CHANNELS 3 Xrotation Yrotation Zrotation 
				JOINT spine_03
				{
					OFFSET 	 1.02887354752e-17	 0.696201319542	 -0.168027801688
					CHANNELS 3 Xrotation Yrotation Zrotation 
					JOINT clavicle_l
					{
						OFFSET 	 0.256189525127	 2.96373746372	 0.68149536826
						CHANNELS 3 Xrotation Yrotation Zrotation 
						JOINT upperarm_l
						{
							OFFSET 	 1.85771695899	 0.0909042461984	 -0.150086101073
							CHANNELS 3 Xrotation Yrotation Zrotation 
							JOINT lowerarm_l
							{
								OFFSET 	 2.87784648222	 -0.0754280152214	 -0.0315106206421
								CHANNELS 3 Xrotation Yrotation Zrotation 
								JOINT hand_l
								{
									OFFSET 	 2.98128178948	 0.141717875828	 0.250993715501
									CHANNELS 3 Xrotation Yrotation Zrotation 
									JOINT index_01_l
									{
										OFFSET 	 1.15663822408	 0.0457534481371	 0.473102335377
										CHANNELS 3 Xrotation Yrotation Zrotation 
										JOINT index_02_l
										{
											OFFSET 	 0.302074439497	 -0.025335318499	 0.0138552778893
											CHANNELS 3 Xrotation Yrotation Zrotation 
											JOINT index_03_l
											{
												OFFSET 	 0.269592278843	 -0.0237255148346	 -0.00121772580535
												CHANNELS 3 Xrotation Yrotation Zrotation 
												End Site
												{
													OFFSET 	 0	 0	 0
												}
											}
										}
									}
									JOINT middle_01_l
									{
										OFFSET 	 1.18521507727	 0.0786876476944	 0.189697050651
										CHANNELS 3 Xrotation Yrotation Zrotation 
										JOINT middle_02_l
										{
											OFFSET 	 0.387212754475	 -0.053749091322	 0.015749153419
											CHANNELS 3 Xrotation Yrotation Zrotation 
											JOINT middle_03_l
											{
												OFFSET 	 0.31874750661	 -0.0380020187941	 0.0329369132087
												CHANNELS 3 Xrotation Yrotation Zrotation 
												End Site
												{
													OFFSET 	 0	 0	 0
												}
											}
										}
									}
									JOINT pinky_01_l
									{
										OFFSET 	 1.08335597669	 -0.0145301765481	 -0.250154350003
										CHANNELS 3 Xrotation Yrotation Zrotation 
										JOINT pinky_02_l
										{
											OFFSET 	 0.250843038846	 -0.00994109614714	 0.00347298104278
											CHANNELS 3 Xrotation Yrotation Zrotation 
											JOINT pinky_03_l
											{
												OFFSET 	 0.18144319977	 -0.00759315172089	 0.0111761657378
												CHANNELS 3 Xrotation Yrotation Zrotation 
												End Site
												{
													OFFSET 	 0	 0	 0
												}
											}
										}
									}
									JOINT ring_01_l
									{
										OFFSET 	 1.14998157711	 0.0628223335289	 -0.0482877833854
										CHANNELS 3 Xrotation Yrotation Zrotation 
										JOINT ring_02_l
										{
											OFFSET 	 0.342709546068	 -0.0443992701335	 0.00894009826856
											CHANNELS 3 Xrotation Yrotation Zrotation 
											JOINT ring_03_l
											{
												OFFSET 	 0.287706391335	 -0.0316219422097	 0.0327815133756
												CHANNELS 3 Xrotation Yrotation Zrotation 
												End Site
												{
													OFFSET 	 0	 0	 0
												}
											}
										}
									}
									JOINT thumb_01_l
									{
										OFFSET 	 0.392130877842	 -0.0356731576726	 0.351106260019
										CHANNELS 3 Xrotation Yrotation Zrotation 
										JOINT thumb_02_l
										{
											OFFSET 	 0.113215465483	 -0.261882824402	 0.218663407763
											CHANNELS 3 Xrotation Yrotation Zrotation 
											JOINT thumb_03_l
											{
												OFFSET 	 0.419543265914	 -0.0505867054362	 0.0619213435502
												CHANNELS 3 Xrotation Yrotation Zrotation 
												End Site
												{
													OFFSET 	 0	 0	 0
												}
											}
										}
									}
								}
							}
						}
					}
					JOINT clavicle_r
					{
						OFFSET 	 -0.256189525127	 2.96373746372	 0.68149536826
						CHANNELS 3 Xrotation Yrotation Zrotation 
						JOINT upperarm_r
						{
							OFFSET 	 -1.85771695899	 0.0909042461984	 -0.150086101073
							CHANNELS 3 Xrotation Yrotation Zrotation 
							JOINT lowerarm_r
							{
								OFFSET 	 -2.87784648222	 -0.0754280152213	 -0.0315106206421
								CHANNELS 3 Xrotation Yrotation Zrotation 
								JOINT hand_r
								{
									OFFSET 	 -2.98128148943	 0.141715961378	 0.250993562837
									CHANNELS 3 Xrotation Yrotation Zrotation 
									JOINT index_01_r
									{
										OFFSET 	 -1.15663810904	 0.045753437419	 0.473102452628
										CHANNELS 3 Xrotation Yrotation Zrotation 
										JOINT index_02_r
										{
											OFFSET 	 -0.302073475922	 -0.0253334087735	 0.0138550625421
											CHANNELS 3 Xrotation Yrotation Zrotation 
											JOINT index_03_r
											{
												OFFSET 	 -0.269593237626	 -0.0237274196022	 -0.00121712009622
												CHANNELS 3 Xrotation Yrotation Zrotation 
												End Site
												{
													OFFSET 	 0	 0	 0
												}
											}
										}
									}
									JOINT middle_01_r
									{
										OFFSET 	 -1.18521497018	 0.0786876460204	 0.189696980441
										CHANNELS 3 Xrotation Yrotation Zrotation 
										JOINT middle_02_r
										{
											OFFSET 	 -0.387212756431	 -0.053750997038	 0.0157493734715
											CHANNELS 3 Xrotation Yrotation Zrotation 
											JOINT middle_03_r
											{
												OFFSET 	 -0.318747528233	 -0.0380001127906	 0.0329366567882
												CHANNELS 3 Xrotation Yrotation Zrotation 
												End Site
												{
													OFFSET 	 0	 0	 0
												}
											}
										}
									}
									JOINT pinky_01_r
									{
										OFFSET 	 -1.08335589344	 -0.0145301697846	 -0.250154214533
										CHANNELS 3 Xrotation Yrotation Zrotation 
										JOINT pinky_02_r
										{
											OFFSET 	 -0.250843033196	 -0.00994110022476	 0.00347281147677
											CHANNELS 3 Xrotation Yrotation Zrotation 
											JOINT pinky_03_r
											{
												OFFSET 	 -0.18144321343	 -0.00759124779723	 0.0111764121432
												CHANNELS 3 Xrotation Yrotation Zrotation 
												End Site
												{
													OFFSET 	 0	 0	 0
												}
											}
										}
									}
									JOINT ring_01_r
									{
										OFFSET 	 -1.14998148145	 0.0628204304061	 -0.0482875193982
										CHANNELS 3 Xrotation Yrotation Zrotation 
										JOINT ring_02_r
										{
											OFFSET 	 -0.342709548784	 -0.0443954569774	 0.00893990059337
											CHANNELS 3 Xrotation Yrotation Zrotation 
											JOINT ring_03_r
											{
												OFFSET 	 -0.287705416227	 -0.0316238485099	 0.0327818198133
												CHANNELS 3 Xrotation Yrotation Zrotation 
												End Site
												{
													OFFSET 	 0	 0	 0
												}
											}
										}
									}
									JOINT thumb_01_r
									{
										OFFSET 	 -0.392130831669	 -0.0356712611488	 0.351106064243
										CHANNELS 3 Xrotation Yrotation Zrotation 
										JOINT thumb_02_r
										{
											OFFSET 	 -0.113170621271	 -0.2619094889	 0.218656214033
											CHANNELS 3 Xrotation Yrotation Zrotation 
											JOINT thumb_03_r
											{
												OFFSET 	 -0.419534697865	 -0.0506362913564	 0.0619445452714
												CHANNELS 3 Xrotation Yrotation Zrotation 
												End Site
												{
													OFFSET 	 0	 0	 0
												}
											}
										}
									}
								}
							}
						}
					}
					JOINT neck_01
					{
						OFFSET 	 -3.01528542186e-17	 3.80313108059	 0.492005246871
						CHANNELS 3 Xrotation Yrotation Zrotation 
						JOINT head
						{
							OFFSET 	 -2.72401060369e-17	 1.02467725502	 0.296602891848
							CHANNELS 3 Xrotation Yrotation Zrotation 
							End Site
							{
								OFFSET 	 0	 0	 0
							}
						}
					}
				}
			}
		}
		JOINT thigh_l
		{
			OFFSET 	 1.24257910252	 -0.172101971279	 -0.11459064121
			CHANNELS 3 Xrotation Yrotation Zrotation 
			JOINT calf_l
			{
				OFFSET 	 0.109058736598	 -4.72226188226	 0.361554468844
				CHANNELS 3 Xrotation Yrotation Zrotation 
				JOINT foot_l
				{
					OFFSET 	 0.124173904175	 -5.13336650795	 -0.259371473812
					CHANNELS 3 Xrotation Yrotation Zrotation 
					JOINT ball_l
					{
						OFFSET 	 0.0314643416258	 -0.713147202041	 1.46711890346
						CHANNELS 3 Xrotation Yrotation Zrotation 
						End Site
						{
							OFFSET 	 0	 0	 0
						}
					}
				}
			}
		}
		JOINT thigh_r
		{
			OFFSET 	 -1.24257910252	 -0.172101971279	 -0.11459064121
			CHANNELS 3 Xrotation Yrotation Zrotation 
			JOINT calf_r
			{
				OFFSET 	 -0.109058540048	 -4.72226084298	 0.361554428702
				CHANNELS 3 Xrotation Yrotation Zrotation 
				JOINT foot_r
				{
					OFFSET 	 -0.124173846026	 -5.13336650247	 -0.259371599449
					CHANNELS 3 Xrotation Yrotation Zrotation 
					JOINT ball_r
					{
						OFFSET 	 -0.0314641816446	 -0.713146832521	 1.46711872033
						CHANNELS 3 Xrotation Yrotation Zrotation 
						End Site
						{
							OFFSET 	 0	 0	 0
						}
					}
				}
			}
		}
	}
}

MOTION
Frames: 4
Frame Time: 0.013889
-0.133761984027 8.19165702029 -3.29622778345 -0.0 0.0 -0.0 -180.0 7.01670929853e-15 -180.0 -0.0 0.0 -0.0 -0.0 0.0 -0.0 -0.0 0.0 -0.0 -5.0844065384 -11.8579102711 -30.5622861694 4.00742154346 13.6105939151 -32.4544335301 -2.50196182079 -16.7887330627 -49.2602569113 -0.0 0.0 -0.0 -0.0 0.0 -0.0 -0.0 0.0 -0.0 -0.0 0.0 -0.0 -0.0 0.0 -0.0 -0.0 0.0 -0.0 -0.0 0.0 -0.0 -0.0 0.0 -0.0 -0.0 0.0 -0.0 -0.0 0.0 -0.0 -0.0 0.0 -0.0 -0.0 0.0 -0.0 -0.0 0.0 -0.0 -0.0 0.0 -0.0 -0.0 0.0 -0.0 -0.0 0.0 -0.0 -2.39063590032 8.47232449782 18.1807332347 4.41797779141 -10.6908426184 46.675410561 -5.66619093632 26.1096716682 44.557714337 -0.0 0.0 -0.0 -0.0 0.0 -0.0 -0.0 0.0 -0.0 -0.0 0.0 -0.0 -0.0 0.0 -0.0 -0.0 0.0 -0.0 -0.0 0.0 -0.0 -0.0 0.0 -0.0 -0.0 0.0 -0.0 -0.0 0.0 -0.0 -0.0 0.0 -0.0 -0.0 0.0 -0.0 -0.0 0.0 -0.0 -0.0 0.0 -0.0 -0.0 0.0 -0.0 -0.0 0.0 -0.0 -0.0 0.0 -0.0 -0.0 0.0 -0.0 -1.08621811601 -0.0954289075349 -1.05001143997 14.1021144285 0.0641094422533 -3.80238981651 -0.0 0.0 -0.0 -0.0 0.0 -0.0 -16.2846657535 0.905244479922 -8.03168019605 40.4323306266 4.0812416105 16.2373931428 -0.0 0.0 -0.0 -0.0 0.0 -0.0
-0.139281461334 8.19029822029 -3.40878376606 -0.0 0.0 -0.0 -180.0 7.01670929853e-15 -180.0 -0.0 0.0 -0.0 -0.0 0.0 -0.0 -0.0 0.0 -0.0 -5.11130797127 -12.1834705145 -30.3357225034 3.91053858006 13.3439771859 -32.3659065279 -2.76080365309 -17.3178192583 -49.7283256666 -0.0 0.0 -0.0 -0.0 0.0 -0.0 -0.0 0.0 -0.0 -0.0 0.0 -0.0 -0.0 0.0 -0.0 -0.0 0.0 -0.0 -0.0 0.0 -0.0 -0.0 0.0 -0.0 -0.0 0.0 -0.0 -0.0 0.0 -0.0 -0.0 0.0 -0.0 -0.0 0.0 -0.0 -0.0 0.0 -0.0 -0.0 0.0 -0.0 -0.0 0.0 -0.0 -0.0 0.0 -0.0 -2.39758517679 8.23874715806 18.3909451088 4.4071174423 -10.678497475 46.6246577832 -5.6343559043 26.1034569582 44.383744987 -0.0 0.0 -0.0 -0.0 0.0 -0.0 -0.0 0.0 -0.0 -0.0 0.0 -0.0 -0.0 0.0 -0.0 -0.0 0.0 -0.0 -0.0 0.0 -0.0 -0.0 0.0 -0.0 -0.0 0.0 -0.0 -0.0 0.0 -0.0 -0.0 0.0 -0.0 -0.0 0.0 -0.0 -0.0 0.0 -0.0 -0.0 0.0 -0.0 -0.0 0.0 -0.0 -0.0 0.0 -0.0 -0.0 0.0 -0.0 -0.0 0.0 -0.0 0.305804676143 -0.0850003076372 -1.16192464202 13.0369656177 0.0849724829241 -3.62623206426 -0.0 0.0 -0.0 -0.0 0.0 -0.0 -17.2665925507 0.965514299707 -7.60796730739 38.3484024516 3.65738596837 15.7116011894 -0.0 0.0 -0.0 -0.0 0.0 -0.0
-0.144438235482 8.18514762029 -3.52374598405 -0.0 0.0 -0.0 -180.0 7.01670929853e-15 -180.0 -0.0 0.0 -0.0 -0.0 0.0 -0.0 -0.0 0.0 -0.0 -5.12070175277 -12.4520578021 -30.0885964462 3.81617879322 13.0818728681 -32.2822376667 -3.02685816367 -17.8444881497 -50.2251923934 -0.0 0.0 -0.0 -0.0 0.0 -0.0 -0.0 0.0 -0.0 -0.0 0.0 -0.0 -0.0 0.0 -0.0 -0.0 0.0 -0.0 -0.0 0.0 -0.0 -0.0 0.0 -0.0 -0.0 0.0 -0.0 -0.0 0.0 -0.0 -0.0 0.0 -0.0 -0.0 0.0 -0.0 -0.0 0.0 -0.0 -0.0 0.0 -0.0 -0.0 0.0 -0.0 -0.0 0.0 -0.0 -2.40775101009 8.02392948425 18.6140422687 4.39873297862 -10.6717782093 46.5720708491 -5.59154973065 26.0793196957 44.1848753471 -0.0 0.0 -0.0 -0.0 0.0 -0.0 -0.0 0.0 -0.0 -0.0 0.0 -0.0 -0.0 0.0 -0.0 -0.0 0.0 -0.0 -0.0 0.0 -0.0 -0.0 0.0 -0.0 -0.0 0.0 -0.0 -0.0 0.0 -0.0 -0.0 0.0 -0.0 -0.0 0.0 -0.0 -0.0 0.0 -0.0 -0.0 0.0 -0.0 -0.0 0.0 -0.0 -0.0 0.0 -0.0 -0.0 0.0 -0.0 -0.0 0.0 -0.0 1.69971521724 -0.0770767615148 -1.27203789815 11.9640347619 0.101584373193 -3.46825901916 -0.0 0.0 -0.0 -0.0 0.0 -0.0 -18.1095038702 1.00503994244 -7.1659786818 35.9915700648 3.19620185196 15.0782003878 -0.0 0.0 -0.0 -0.0 0.0 -0.0
-0.146301507074 8.17961782029 -3.64000246697 -0.0 0.0 -0.0 -180.0 7.01670929853e-15 -180.0 -0.0 0.0 -0.0 -0.0 0.0 -0.0 -0.0 0.0 -0.0 -5.12732633291 -12.7263462114 -29.8272341515 3.73643482458 12.8586759273 -32.2130673175 -3.29114536176 -18.3499275984 -50.734624274 -0.0 0.0 -0.0 -0.0 0.0 -0.0 -0.0 0.0 -0.0 -0.0 0.0 -0.0 -0.0 0.0 -0.0 -0.0 0.0 -0.0 -0.0 0.0 -0.0 -0.0 0.0 -0.0 -0.0 0.0 -0.0 -0.0 0.0 -0.0 -0.0 0.0 -0.0 -0.0 0.0 -0.0 -0.0 0.0 -0.0 -0.0 0.0 -0.0 -0.0 0.0 -0.0 -0.0 0.0 -0.0 -2.42251762488 7.8290799574 18.8580771567 4.3908598981 -10.66859815 46.5081629437 -5.55523255317 26.0645212886 44.0026612672 -0.0 0.0 -0.0 -0.0 0.0 -0.0 -0.0 0.0 -0.0 -0.0 0.0 -0.0 -0.0 0.0 -0.0 -0.0 0.0 -0.0 -0.0 0.0 -0.0 -0.0 0.0 -0.0 -0.0 0.0 -0.0 -0.0 0.0 -0.0 -0.0 0.0 -0.0 -0.0 0.0 -0.0 -0.0 0.0 -0.0 -0.0 0.0 -0.0 -0.0 0.0 -0.0 -0.0 0.0 -0.0 -0.0 0.0 -0.0 -0.0 0.0 -0.0 3.0704840673 -0.0723152994144 -1.38449546038 10.9517454485 0.115577851095 -3.29678722868 -0.0 0.0 -0.0 -0.0 0.0 -0.0 -18.8422011703 1.02237546495 -6.64963400785 33.3859967565 2.70593340027 14.3099375152 -0.0 0.0 -0.0 -0.0 0.0 -0.0
